<?xml version="1.0" standalone="no"?><!DOCTYPE svg PUBLIC "-//W3C//DTD SVG 1.1//EN" "http://www.w3.org/Graphics/SVG/1.1/DTD/svg11.dtd"><svg t="1728835033409" class="icon" viewBox="0 0 1024 1024" version="1.1" xmlns="http://www.w3.org/2000/svg" p-id="4832" xmlns:xlink="http://www.w3.org/1999/xlink" width="200" height="200"><path d="M512 912c220.914 0 400-179.086 400-400S732.914 112 512 112 112 291.086 112 512s179.086 400 400 400z m0 80C246.903 992 32 777.097 32 512S246.903 32 512 32s480 214.903 480 480-214.903 480-480 480zM364.696 756.943l173.99-173.989C550.36 574.824 558 561.304 558 546V226.328c0-24.853-20.147-45-45-45s-45 20.147-45 45V526.36L301.057 693.304c-17.574 17.573-17.574 46.066 0 63.64 17.573 17.573 46.066 17.573 63.64 0l-0.001-0.001z" p-id="4833"></path></svg>