<?xml version="1.0" standalone="no"?><!DOCTYPE svg PUBLIC "-//W3C//DTD SVG 1.1//EN" "http://www.w3.org/Graphics/SVG/1.1/DTD/svg11.dtd"><svg t="1728920735320" class="icon" viewBox="0 0 1024 1024" version="1.1" xmlns="http://www.w3.org/2000/svg" p-id="15199" xmlns:xlink="http://www.w3.org/1999/xlink" width="200" height="200"><path d="M200.0384 113.7664h637.184a136.5504 136.5504 0 0 1 136.5504 136.5504v637.1328A136.5504 136.5504 0 0 1 837.2224 1024H200.0384a136.5504 136.5504 0 0 1-136.4992-136.5504V250.368a136.5504 136.5504 0 0 1 136.4992-136.5504z m0 91.0336a45.5168 45.5168 0 0 0-45.4656 45.5168v637.1328c0 25.1392 20.3264 45.568 45.4656 45.568h637.184c25.088 0 45.5168-20.4288 45.5168-45.568V250.368A45.5168 45.5168 0 0 0 837.12 204.8H200.0896z" fill="#34bfa3" p-id="15200"></path><path d="M281.6 614.4h92.16v92.16H281.6zM465.92 614.4h92.16v92.16H465.92zM650.24 614.4H742.4v92.16h-92.16zM281.6 752.64h92.16v92.16H281.6zM465.92 752.64h92.16v92.16H465.92zM650.24 752.64H742.4v92.16h-92.16z" fill="#34bfa3" p-id="15201"></path><path d="M647.5776 75.8272v182.0672a45.5168 45.5168 0 0 0 91.0336 0V75.8272a45.5168 45.5168 0 1 0-91.0336 0zM283.4944 75.8272v182.0672a45.5168 45.5168 0 0 0 91.0336 0V75.8272a45.5168 45.5168 0 1 0-91.0336 0zM101.4272 485.4272h819.2a45.5168 45.5168 0 1 0 0-90.9824h-819.2a45.5168 45.5168 0 0 0 0 90.9824z" fill="#34bfa3" p-id="15202"></path></svg>