<?xml version="1.0" standalone="no"?><!DOCTYPE svg PUBLIC "-//W3C//DTD SVG 1.1//EN" "http://www.w3.org/Graphics/SVG/1.1/DTD/svg11.dtd"><svg t="1728920607738" class="icon" viewBox="0 0 1024 1024" version="1.1" xmlns="http://www.w3.org/2000/svg" p-id="9049" xmlns:xlink="http://www.w3.org/1999/xlink" width="200" height="200"><path d="M858.624 102.4H819.2V51.2c0-28.16-23.04-51.2-51.2-51.2s-51.2 23.04-51.2 51.2v51.2H307.2V51.2c0-28.16-23.04-51.2-51.2-51.2S204.8 23.04 204.8 51.2v51.2h-39.424C74.24 102.4 0 176.64 0 267.776v590.848C0 949.76 74.24 1024 165.376 1024h693.248c91.136 0 165.376-74.24 165.376-165.376V267.776c0-91.136-74.24-165.376-165.376-165.376zM921.6 858.624c0 34.816-28.16 62.976-62.976 62.976H165.376c-34.816 0-62.976-28.16-62.976-62.976V267.776C102.4 232.96 130.56 204.8 165.376 204.8H204.8v51.2c0 28.16 23.04 51.2 51.2 51.2s51.2-23.04 51.2-51.2V204.8h409.6v51.2c0 28.16 23.04 51.2 51.2 51.2s51.2-23.04 51.2-51.2V204.8h39.424c34.816 0 62.976 28.16 62.976 62.976v590.848z" fill="#f4516c" p-id="9050"></path><path d="M501.76 792.064c-6.656 0-13.824-1.536-19.968-4.608-23.04-11.264-32.256-38.912-20.992-61.44l97.28-198.144H430.592c-25.6 0-46.08-20.48-46.08-46.08s20.48-46.08 46.08-46.08h200.704c15.872 0 30.72 8.192 38.912 21.504 8.192 13.312 9.216 30.208 2.048 44.544L542.72 766.464c-7.68 15.872-24.064 25.6-40.96 25.6z" fill="#f4516c" p-id="9051"></path></svg>